<?xml version="1.0" encoding="utf-8"?>
<!-- Generator: Adobe Illustrator 23.0.0, SVG Export Plug-In . SVG Version: 6.00 Build 0)  -->
<svg version="1.1" id="Layer_1" xmlns="http://www.w3.org/2000/svg" xmlns:xlink="http://www.w3.org/1999/xlink" x="0px" y="0px"
	 viewBox="0 0 20 20" style="enable-background:new 0 0 20 20;" xml:space="preserve">
<style type="text/css">
	.st0{fill:none;}
	.st1{fill:#FFFFFF;}
</style>
<path class="st0" d="M0,0h20v20H0V0z"/>
<path class="st1" d="M15.9,10.8c0-0.3,0.1-0.5,0.1-0.8s0-0.5-0.1-0.8l1.7-1.3c0.1-0.1,0.2-0.3,0.1-0.5l-1.6-2.8
	c-0.1-0.2-0.3-0.2-0.5-0.2l-2,0.8c-0.4-0.3-0.9-0.6-1.4-0.8L12,2.3C12,2.1,11.8,2,11.6,2H8.4C8.2,2,8,2.1,8,2.3L7.7,4.5
	C7.2,4.7,6.8,4.9,6.4,5.2l-2-0.8C4.2,4.4,4,4.4,3.9,4.6L2.3,7.4C2.2,7.6,2.2,7.8,2.4,7.9l1.7,1.3C4,9.5,4,9.7,4,10s0,0.5,0.1,0.8
	l-1.7,1.3c-0.2,0.1-0.2,0.3-0.1,0.5l1.6,2.8c0.1,0.2,0.3,0.2,0.5,0.2l2-0.8c0.4,0.3,0.9,0.6,1.3,0.8L8,17.7C8,17.9,8.2,18,8.4,18
	h3.2c0.2,0,0.4-0.1,0.4-0.3l0.3-2.1c0.5-0.2,0.9-0.5,1.4-0.8l2,0.8c0.2,0.1,0.4,0,0.5-0.2l1.6-2.8c0.1-0.2,0.1-0.4-0.1-0.5
	C17.6,12.1,16,10.8,15.9,10.8z M10,13c-1.6,0-3-1.4-3-3s1.4-3,3-3s3,1.4,3,3S11.6,13,10,13z"/>
</svg>
