<svg xmlns="http://www.w3.org/2000/svg" xmlns:xlink="http://www.w3.org/1999/xlink" id="Layer_1" x="0" y="0" version="1.1" viewBox="0 0 24 24" xml:space="preserve" style="enable-background:new 0 0 24 24"><style type="text/css">.st0{fill:none}.st1{fill:#fff}</style><path d="M0,0h24v24H0V0z" class="st0"/><path d="M17,7h-4v2h4c1.6,0,3,1.4,3,3s-1.4,3-3,3h-4v2h4c2.8,0,5-2.2,5-5S19.8,7,17,7z M11,15H7c-1.7,0-3-1.4-3-3	s1.3-3,3-3h4V7H7c-2.8,0-5,2.2-5,5s2.2,5,5,5h4V15z M8,11h8v2H8V11z" class="st1"/></svg>