<?xml version="1.0" encoding="utf-8"?>
<!-- Generator: Adobe Illustrator 23.0.0, SVG Export Plug-In . SVG Version: 6.00 Build 0)  -->
<svg version="1.1" id="Layer_1" xmlns="http://www.w3.org/2000/svg" xmlns:xlink="http://www.w3.org/1999/xlink" x="0px" y="0px"
	 viewBox="0 0 24 24" style="enable-background:new 0 0 24 24;" xml:space="preserve">
<style type="text/css">
	.st0{fill:none;}
	.st1{fill:#FFFFFF;}
</style>
<g>
	<path class="st0" d="M0,0v24h24V0H0z M11.7,7.6c-1,0-1-1.5,0-1.5S12.7,7.6,11.7,7.6z"/>
	<path class="st0" d="M0,0v24h24V0H0z M11.7,7.6c-1,0-1-1.5,0-1.5S12.7,7.6,11.7,7.6z"/>
</g>
<path class="st1" d="M12,0.7c-1.9,0-3.5,1.3-3.5,3.1v13.6c0,1.6,1.5,3.1,3.5,3.1c1.9,0,3.5-1.3,3.5-3.1V3.7C15.5,2.1,14,0.7,12,0.7z
	 M12.1,7.7c-1.7,0-1.7-2.6,0-2.6C13.8,5,13.8,7.7,12.1,7.7z"/>
</svg>
