<svg xmlns="http://www.w3.org/2000/svg" xmlns:xlink="http://www.w3.org/1999/xlink" id="Layer_1" x="0" y="0" version="1.1" viewBox="0 0 24 24" xml:space="preserve" style="enable-background:new 0 0 24 24"><style type="text/css">.st0{fill:none}.st1{fill:#fff}</style><path d="M0,0h24v24H0V0z" class="st0"/><path d="M20,4v12H8V4H20 M20,2H8C6.9,2,6,2.9,6,4v12c0,1.1,0.9,2,2,2h12c1.1,0,2-0.9,2-2V4C22,2.9,21.1,2,20,2z M11.5,11.7l1.7,2.3l2.5-3.1L19,15H9L11.5,11.7z M2,6v14c0,1.1,0.9,2,2,2h14v-2H4V6H2z" class="st1"/></svg>