<svg xmlns="http://www.w3.org/2000/svg" xmlns:xlink="http://www.w3.org/1999/xlink" id="Layer_1" x="0" y="0" version="1.1" viewBox="0 0 24 24" xml:space="preserve" style="enable-background:new 0 0 24 24"><style type="text/css">.st0{fill:none}.st1{fill:#fff}</style><path d="M0,0h24v24H0V0z" class="st0"/><path d="M14.1,4l1.8,2H20v12H4V6h4.1l1.8-2H14.1 M15,2H9L7.2,4H4C2.9,4,2,4.9,2,6v12c0,1.1,0.9,2,2,2h16	c1.1,0,2-0.9,2-2V6c0-1.1-0.9-2-2-2h-3.2L15,2z M12,9c1.6,0,3,1.4,3,3s-1.4,3-3,3s-3-1.4-3-3S10.4,9,12,9 M12,7c-2.8,0-5,2.2-5,5	s2.2,5,5,5s5-2.2,5-5S14.8,7,12,7z" class="st1"/></svg>