<?xml version="1.0" encoding="utf-8"?>
<!-- Generator: Adobe Illustrator 23.0.0, SVG Export Plug-In . SVG Version: 6.00 Build 0)  -->
<svg version="1.1" id="Layer_1" xmlns="http://www.w3.org/2000/svg" xmlns:xlink="http://www.w3.org/1999/xlink" x="0px" y="0px"
	 viewBox="0 0 24 24" style="enable-background:new 0 0 24 24;" xml:space="preserve">
<style type="text/css">
	.st0{fill:none;}
	.st1{fill:#FFFFFF;}
</style>
<path class="st0" d="M0,0h24v24H0V0z"/>
<path class="st1" d="M14.1,4l1.8,2H20v12H4V6h4.1l1.8-2H14.1 M15,2H9L7.2,4H4C2.9,4,2,4.9,2,6v12c0,1.1,0.9,2,2,2h16
	c1.1,0,2-0.9,2-2V6c0-1.1-0.9-2-2-2h-3.2L15,2z M12,9c1.6,0,3,1.4,3,3s-1.4,3-3,3s-3-1.4-3-3S10.4,9,12,9 M12,7c-2.8,0-5,2.2-5,5
	s2.2,5,5,5s5-2.2,5-5S14.8,7,12,7z"/>
</svg>
